General
Complete name                            : song10.mp3
Format                                   : MPEG Audio
File size                                : 3.32 MiB
Duration                                 : 3 min 37 s
Overall bit rate mode                    : Constant
Overall bit rate                         : 128 kb/s
Track_More                               : English
Genre                                    : Cd

Audio
Format                                   : MPEG Audio
Format version                           : Version 1
Format profile                           : Layer 3
Format settings                          : Joint stereo / MS Stereo
Duration                                 : 3 min 37 s
Bit rate mode                            : Constant
Bit rate                                 : 128 kb/s
Channel(s)                               : 2 channels
Sampling rate                            : 44.1 kHz
Frame rate                               : 38.281 FPS (1152 SPF)
Compression mode                         : Lossy
Stream size                              : 3.32 MiB (100%)


General
Complete name                            : song10.mp3
Format                                   : MPEG Audio
File size                                : 3.32 MiB
Duration                                 : 3 min 37 s
Overall bit rate mode                    : Constant
Overall bit rate                         : 128 kb/s
Track_More                               : English
Genre                                    : Cd

Audio
Format                                   : MPEG Audio
Format version                           : Version 1
Format profile                           : Layer 3
Format settings                          : Joint stereo / MS Stereo
Duration                                 : 3 min 37 s
Bit rate mode                            : Constant
Bit rate                                 : 128 kb/s
Channel(s)                               : 2 channels
Sampling rate                            : 44.1 kHz
Frame rate                               : 38.281 FPS (1152 SPF)
Compression mode                         : Lossy
Stream size                              : 3.32 MiB (100%)


